<svg width="181" height="163" viewBox="0 0 181 163" fill="none" xmlns="http://www.w3.org/2000/svg">
<path d="M31.6747 86.5956C31.6651 86.5435 31.6564 86.4912 31.6485 86.4385L20.6329 20.3446C19.5445 13.8145 13.8947 9.02837 7.27458 9.02837H4.51419C2.02107 9.02837 0 7.0073 0 4.51419C0 2.02107 2.02107 0 4.51419 0H7.27458C18.0348 0 27.2569 7.58647 29.3897 18.0567H176.053C179.052 18.0567 181.218 20.9273 180.394 23.8111L162.337 87.0097C161.783 88.9476 160.012 90.2837 157.997 90.2837H41.4423L42.5657 97.0243C43.6541 103.554 49.3039 108.34 55.924 108.34H157.997C160.49 108.34 162.511 110.362 162.511 112.855C162.511 115.348 160.49 117.369 157.997 117.369H55.924C44.8905 117.369 35.4741 109.392 33.6602 98.5086L31.6747 86.5956ZM30.9092 27.0851L39.9376 81.2554H154.591L170.069 27.0851H30.9092ZM54.1702 162.511C44.1978 162.511 36.1135 154.426 36.1135 144.454C36.1135 134.482 44.1978 126.397 54.1702 126.397C64.1427 126.397 72.227 134.482 72.227 144.454C72.227 154.426 64.1427 162.511 54.1702 162.511ZM54.1702 153.482C59.1565 153.482 63.1986 149.44 63.1986 144.454C63.1986 139.468 59.1565 135.426 54.1702 135.426C49.184 135.426 45.1419 139.468 45.1419 144.454C45.1419 149.44 49.184 153.482 54.1702 153.482ZM135.426 162.511C125.453 162.511 117.369 154.426 117.369 144.454C117.369 134.482 125.453 126.397 135.426 126.397C145.398 126.397 153.482 134.482 153.482 144.454C153.482 154.426 145.398 162.511 135.426 162.511ZM135.426 153.482C140.412 153.482 144.454 149.44 144.454 144.454C144.454 139.468 140.412 135.426 135.426 135.426C130.439 135.426 126.397 139.468 126.397 144.454C126.397 149.44 130.439 153.482 135.426 153.482Z" fill="white"/>
</svg>
