<svg width="40" height="38" viewBox="0 0 40 38" fill="none" xmlns="http://www.w3.org/2000/svg">
<path d="M6.5937 18.4282C7.24338 18.4282 7.74652 18.9291 7.74652 19.5819V35.3404H15.9214V28.9056C15.9214 28.3019 16.4245 27.7742 17.0326 27.7742H22.9435C23.5937 27.7742 24.1173 28.3018 24.1173 28.9056V35.3404H32.2716V20.1051C32.2716 19.4969 32.7742 18.9916 33.4244 18.9916C34.0321 18.9916 34.5352 19.4969 34.5352 20.1051V36.4942C34.5352 37.1023 34.0321 37.6076 33.4244 37.6076H22.9435C22.3357 37.6076 21.8327 37.1023 21.8327 36.4942V30.0592H18.1855V36.4942C18.1855 37.1023 17.6825 37.6076 17.0326 37.6076H6.5937C5.98592 37.6076 5.48292 37.1023 5.48292 36.4942V19.582C5.48292 18.9291 5.98592 18.4282 6.5937 18.4282Z" fill="white"/>
<path d="M0.326412 19.3271L9.42345 10.1912V3.96204C9.42345 3.31361 9.94757 2.81282 10.5973 2.81282C11.2055 2.81282 11.7085 3.31367 11.7085 3.96204V7.90617L19.2126 0.357779C19.4425 0.125229 19.7157 0 19.988 0C20.3024 0 20.5751 0.129674 20.8055 0.357779L39.6496 19.2018C40.1017 19.6535 40.1316 20.3779 39.6496 20.7938C39.2306 21.2767 38.5088 21.2454 38.0567 20.7938L19.988 2.76805L1.96132 20.9637C1.77354 21.1516 1.50027 21.2589 1.14387 21.2589C0.829491 21.2589 0.557198 21.1516 0.326412 20.9637C-0.0930023 20.5434 -0.12431 19.7832 0.326412 19.3271Z" fill="white"/>
</svg>
