<svg width="40" height="40" viewBox="0 0 40 40" fill="none" xmlns="http://www.w3.org/2000/svg">
<g clip-path="url(#clip0_14_507)">
<path d="M21.7526 18.1885V15.7523C21.7526 15.4288 21.4902 15.1663 21.1667 15.1663H10.2905C9.96674 15.1663 9.70459 15.4288 9.70459 15.7523V18.1885C9.70459 18.512 9.96674 18.7744 10.2905 18.7744H21.1667C21.4902 18.7744 21.7526 18.5123 21.7526 18.1885ZM20.5807 17.6025H10.8765V16.3382H20.5807V17.6025Z" fill="white"/>
<path d="M22.2604 33.9301H29.8217C30.1452 33.9301 30.4077 33.6676 30.4077 33.3441V30.9076C30.4077 30.5841 30.1452 30.3217 29.8217 30.3217H22.2604C21.9366 30.3217 21.6744 30.5841 21.6744 30.9076V33.3441C21.6744 33.6676 21.9366 33.9301 22.2604 33.9301ZM22.8463 31.4935H29.2358V32.7582H22.8463V31.4935Z" fill="white"/>
<path d="M29.8218 11.6168H10.2905C9.96674 11.6168 9.70459 11.8793 9.70459 12.2028C9.70459 12.5266 9.96674 12.7887 10.2905 12.7887H29.8218C30.1453 12.7887 30.4077 12.5266 30.4077 12.2028C30.4077 11.8793 30.1453 11.6168 29.8218 11.6168Z" fill="white"/>
<path d="M17.3776 21.3434C17.3776 21.0199 17.1152 20.7574 16.7917 20.7574H10.2905C9.96674 20.7574 9.70459 21.0199 9.70459 21.3434C9.70459 21.6672 9.96674 21.9293 10.2905 21.9293H16.7917C17.1152 21.9293 17.3776 21.6672 17.3776 21.3434Z" fill="white"/>
<path d="M15.7285 23.7134H10.2905C9.96674 23.7134 9.70459 23.9755 9.70459 24.2993C9.70459 24.6228 9.96674 24.8853 10.2905 24.8853H15.7285C16.0522 24.8853 16.3144 24.6228 16.3144 24.2993C16.3144 23.9755 16.0522 23.7134 15.7285 23.7134Z" fill="white"/>
<path d="M15.7285 26.669H10.2905C9.96674 26.669 9.70459 26.9315 9.70459 27.2549C9.70459 27.5787 9.96674 27.8409 10.2905 27.8409H15.7285C16.0522 27.8409 16.3144 27.5787 16.3144 27.2549C16.3144 26.9315 16.0522 26.669 15.7285 26.669Z" fill="white"/>
<path d="M29.8218 26.669H27.1027C26.7789 26.669 26.5167 26.9315 26.5167 27.2549C26.5167 27.5787 26.7789 27.8409 27.1027 27.8409H29.8218C30.1453 27.8409 30.4077 27.5787 30.4077 27.2549C30.4077 26.9315 30.1453 26.669 29.8218 26.669Z" fill="white"/>
<path d="M29.8218 23.7134H27.1027C26.7789 23.7134 26.5167 23.9758 26.5167 24.2993C26.5167 24.6228 26.7789 24.8853 27.1027 24.8853H29.8218C30.1453 24.8853 30.4077 24.6228 30.4077 24.2993C30.4077 23.9758 30.1453 23.7134 29.8218 23.7134Z" fill="white"/>
<path d="M29.8218 20.7574H27.1027C26.7789 20.7574 26.5167 21.0199 26.5167 21.3434C26.5167 21.6672 26.7789 21.9293 27.1027 21.9293H29.8218C30.1453 21.9293 30.4077 21.6672 30.4077 21.3434C30.4077 21.0199 30.1453 20.7574 29.8218 20.7574Z" fill="white"/>
<path d="M32.1823 13.7839C32.5058 13.7839 32.7682 13.5214 32.7682 13.1979V0.585938C32.7682 0.262451 32.5058 0 32.1823 0C30.325 0 30.1694 2.34375 29.1501 2.34375C28.1314 2.34375 27.9776 0 26.1182 0C24.2615 0 24.1052 2.34375 23.0869 2.34375C22.0648 2.34375 21.9177 0 20.0549 0C18.1982 0 18.0423 2.34375 17.0236 2.34375C16.0065 2.34375 15.8499 0 13.9923 0C12.1353 0 11.9797 2.34375 10.961 2.34375C9.93896 2.34375 9.79279 0 7.92969 0C7.6059 0 7.34375 0.262451 7.34375 0.585938V39.4141C7.34375 39.7375 7.6059 40 7.92969 40C9.78668 40 9.94263 37.6562 10.961 37.6562C11.9827 37.6562 12.1295 40 13.9923 40C15.849 40 16.0049 37.6562 17.0236 37.6562C18.0457 37.6562 18.1924 40 20.0549 40C21.9119 40 22.0682 37.6562 23.0869 37.6562C24.1089 37.6562 24.2554 40 26.1182 40C27.9755 40 28.1311 37.6562 29.1501 37.6562C30.1691 37.6562 30.3229 40 32.1823 40C32.5058 40 32.7682 39.7375 32.7682 39.4141V15.3854C32.7682 15.0616 32.5058 14.7995 32.1823 14.7995C31.8585 14.7995 31.5964 15.0616 31.5964 15.3854V38.5324C31.0114 37.8857 30.585 36.4844 29.1501 36.4844C27.2931 36.4844 27.1374 38.8281 26.1182 38.8281C25.101 38.8281 24.9445 36.4844 23.0869 36.4844C21.2299 36.4844 21.0736 38.8281 20.0549 38.8281C19.0332 38.8281 18.8864 36.4844 17.0236 36.4844C15.1666 36.4844 15.0107 38.8281 13.9923 38.8281C12.97 38.8281 12.8238 36.4844 10.961 36.4844C9.52698 36.4844 9.10095 37.8848 8.51562 38.5321V1.4679C9.09973 2.11395 9.52667 3.51562 10.9613 3.51562C12.818 3.51562 12.9739 1.17188 13.9923 1.17188C15.0146 1.17188 15.1608 3.51562 17.0236 3.51562C18.8806 3.51562 19.0366 1.17188 20.0552 1.17188C21.0773 1.17188 21.2241 3.51562 23.0869 3.51562C24.9438 3.51562 25.0995 1.17188 26.1185 1.17188C27.1374 1.17188 27.2913 3.51562 29.1504 3.51562C30.585 3.51562 31.0117 2.11426 31.5964 1.46759V13.1979C31.5964 13.5214 31.8585 13.7839 32.1823 13.7839Z" fill="white"/>
<path d="M30.4077 6.65588C30.4077 6.3324 30.1453 6.06995 29.8218 6.06995H15.7285C15.4047 6.06995 15.1425 6.3324 15.1425 6.65588C15.1425 6.97968 15.4047 7.24182 15.7285 7.24182H29.2358V8.50647H10.8765V7.24182H13.541C13.8647 7.24182 14.1269 6.97968 14.1269 6.65588C14.1269 6.3324 13.8647 6.06995 13.541 6.06995H10.2905C9.96674 6.06995 9.70459 6.3324 9.70459 6.65588V9.09241C9.70459 9.41589 9.96674 9.67834 10.2905 9.67834H29.8218C30.1453 9.67834 30.4077 9.41589 30.4077 9.09241V6.65588Z" fill="white"/>
</g>
<defs>
<clipPath id="clip0_14_507">
<rect width="40" height="40" fill="white"/>
</clipPath>
</defs>
</svg>
